<mxfile host="Electron" agent="Mozilla/5.0 (Windows NT 10.0; Win64; x64) AppleWebKit/537.36 (KHTML, like Gecko) draw.io/26.0.9 Chrome/128.0.6613.186 Electron/32.2.5 Safari/537.36" version="26.0.9">
  <diagram id="C5RBs43oDa-KdzZeNtuy" name="Page-1">
    <mxGraphModel dx="1098" dy="820" grid="1" gridSize="10" guides="1" tooltips="1" connect="1" arrows="1" fold="1" page="1" pageScale="1" pageWidth="827" pageHeight="1169" math="0" shadow="0">
      <root>
        <mxCell id="WIyWlLk6GJQsqaUBKTNV-0" />
        <mxCell id="WIyWlLk6GJQsqaUBKTNV-1" parent="WIyWlLk6GJQsqaUBKTNV-0" />
        <mxCell id="5Ay9bPtbTg8Qj_nnaDKm-3" value="" style="edgeStyle=orthogonalEdgeStyle;rounded=0;orthogonalLoop=1;jettySize=auto;html=1;" edge="1" parent="WIyWlLk6GJQsqaUBKTNV-1" source="5Ay9bPtbTg8Qj_nnaDKm-0" target="5Ay9bPtbTg8Qj_nnaDKm-1">
          <mxGeometry relative="1" as="geometry" />
        </mxCell>
        <mxCell id="5Ay9bPtbTg8Qj_nnaDKm-0" value="Start" style="ellipse;whiteSpace=wrap;html=1;aspect=fixed;" vertex="1" parent="WIyWlLk6GJQsqaUBKTNV-1">
          <mxGeometry x="295" width="60" height="60" as="geometry" />
        </mxCell>
        <mxCell id="5Ay9bPtbTg8Qj_nnaDKm-5" value="" style="edgeStyle=orthogonalEdgeStyle;rounded=0;orthogonalLoop=1;jettySize=auto;html=1;" edge="1" parent="WIyWlLk6GJQsqaUBKTNV-1" source="5Ay9bPtbTg8Qj_nnaDKm-1" target="5Ay9bPtbTg8Qj_nnaDKm-4">
          <mxGeometry relative="1" as="geometry" />
        </mxCell>
        <mxCell id="5Ay9bPtbTg8Qj_nnaDKm-1" value="set range" style="rounded=1;whiteSpace=wrap;html=1;" vertex="1" parent="WIyWlLk6GJQsqaUBKTNV-1">
          <mxGeometry x="280" y="100" width="70" height="60" as="geometry" />
        </mxCell>
        <mxCell id="5Ay9bPtbTg8Qj_nnaDKm-7" value="" style="edgeStyle=orthogonalEdgeStyle;rounded=0;orthogonalLoop=1;jettySize=auto;html=1;" edge="1" parent="WIyWlLk6GJQsqaUBKTNV-1" source="5Ay9bPtbTg8Qj_nnaDKm-4" target="5Ay9bPtbTg8Qj_nnaDKm-6">
          <mxGeometry relative="1" as="geometry" />
        </mxCell>
        <mxCell id="5Ay9bPtbTg8Qj_nnaDKm-4" value="&lt;div&gt;Multiple of 3 and 5 (&lt;span style=&quot;background-color: transparent; color: light-dark(rgb(0, 0, 0), rgb(255, 255, 255));&quot;&gt;15) print FizzBuzz&lt;/span&gt;&lt;/div&gt;" style="rounded=1;whiteSpace=wrap;html=1;absoluteArcSize=1;arcSize=14;strokeWidth=2;" vertex="1" parent="WIyWlLk6GJQsqaUBKTNV-1">
          <mxGeometry x="265" y="200" width="85" height="70" as="geometry" />
        </mxCell>
        <mxCell id="5Ay9bPtbTg8Qj_nnaDKm-9" value="" style="edgeStyle=orthogonalEdgeStyle;rounded=0;orthogonalLoop=1;jettySize=auto;html=1;" edge="1" parent="WIyWlLk6GJQsqaUBKTNV-1" source="5Ay9bPtbTg8Qj_nnaDKm-6" target="5Ay9bPtbTg8Qj_nnaDKm-8">
          <mxGeometry relative="1" as="geometry" />
        </mxCell>
        <mxCell id="5Ay9bPtbTg8Qj_nnaDKm-6" value="Multiples of 3 print Fizz" style="rounded=1;whiteSpace=wrap;html=1;arcSize=14;strokeWidth=2;" vertex="1" parent="WIyWlLk6GJQsqaUBKTNV-1">
          <mxGeometry x="255" y="310" width="85" height="60" as="geometry" />
        </mxCell>
        <mxCell id="5Ay9bPtbTg8Qj_nnaDKm-11" value="" style="edgeStyle=orthogonalEdgeStyle;rounded=0;orthogonalLoop=1;jettySize=auto;html=1;" edge="1" parent="WIyWlLk6GJQsqaUBKTNV-1" source="5Ay9bPtbTg8Qj_nnaDKm-8" target="5Ay9bPtbTg8Qj_nnaDKm-10">
          <mxGeometry relative="1" as="geometry" />
        </mxCell>
        <mxCell id="5Ay9bPtbTg8Qj_nnaDKm-8" value="Multiples of 5 print Buzz" style="rounded=1;whiteSpace=wrap;html=1;arcSize=14;strokeWidth=2;" vertex="1" parent="WIyWlLk6GJQsqaUBKTNV-1">
          <mxGeometry x="255" y="410" width="72.5" height="60" as="geometry" />
        </mxCell>
        <mxCell id="5Ay9bPtbTg8Qj_nnaDKm-13" value="" style="edgeStyle=orthogonalEdgeStyle;rounded=0;orthogonalLoop=1;jettySize=auto;html=1;" edge="1" parent="WIyWlLk6GJQsqaUBKTNV-1" source="5Ay9bPtbTg8Qj_nnaDKm-10" target="5Ay9bPtbTg8Qj_nnaDKm-12">
          <mxGeometry relative="1" as="geometry" />
        </mxCell>
        <mxCell id="5Ay9bPtbTg8Qj_nnaDKm-10" value="Others, print number" style="rounded=1;whiteSpace=wrap;html=1;arcSize=14;strokeWidth=2;" vertex="1" parent="WIyWlLk6GJQsqaUBKTNV-1">
          <mxGeometry x="231.25" y="500" width="88.75" height="50" as="geometry" />
        </mxCell>
        <mxCell id="5Ay9bPtbTg8Qj_nnaDKm-12" value="End" style="strokeWidth=2;html=1;shape=mxgraph.flowchart.terminator;whiteSpace=wrap;" vertex="1" parent="WIyWlLk6GJQsqaUBKTNV-1">
          <mxGeometry x="220" y="610" width="100" height="60" as="geometry" />
        </mxCell>
      </root>
    </mxGraphModel>
  </diagram>
</mxfile>
